<?xml version="1.0" encoding="utf-8" ?>
<svg baseProfile="full" height="200mm" version="1.1" viewBox="0,0,200,200" width="200mm" xmlns="http://www.w3.org/2000/svg" xmlns:ev="http://www.w3.org/2001/xml-events" xmlns:xlink="http://www.w3.org/1999/xlink"><defs /><rect fill="#1a1a1a" height="200" width="200" x="0" y="0" /><text alignment-baseline="middle" fill="#e1ed5e" style="dominant-baseline: central; font-size:9.0px; font-family:Arial;" text-anchor="middle" x="100.0" y="100.0">2020</text><line stroke="#e1ed5e" stroke-width="0.3" x1="100.0" x2="100.0" y1="15.0" y2="10.0" /><path d="M 100.0 14.0 a86.0,86.0 0 0,1 42.35913384403234,11.155469271406648" fill="none" id="id13" stroke="none" /><text fill="#e1ed5e" style="font-size:6.75px; font-family:Arial;" text-anchor="middle"><textPath startOffset="22.145653131862478" xlink:href="#id13">January</textPath></text><line stroke="#e1ed5e" stroke-width="0.3" x1="143.13028292997686" x2="145.6673583964461" y1="26.7553504044142" y2="22.446841604673864" /><path d="M 143.63769802327073 25.89364864446614 a86.0,86.0 0 0,1 29.32050498858742,28.57503671076993" fill="none" id="id14" stroke="none" /><text fill="#e1ed5e" style="font-size:6.75px; font-family:Arial;" text-anchor="middle"><textPath startOffset="20.669276256404974" xlink:href="#id14">February</textPath></text><line stroke="#e1ed5e" stroke-width="0.3" x1="172.87174338648825" x2="177.1583165268699" y1="56.24261187166439" y2="53.66864786411523" /><path d="M 173.72905801456457 55.72781907015455 a86.0,86.0 0 0,1 12.242430191666344,42.057860355516425" fill="none" id="id15" stroke="none" /><text fill="#e1ed5e" style="font-size:6.75px; font-family:Arial;" text-anchor="middle"><textPath startOffset="22.145653131862474" xlink:href="#id15">March</textPath></text><path d="M 118.8641267826498 90.77261029715802 l 47.20084231596255 -23.08829724110881 a73.54511380547342,73.54511380547342 0 0,0 0.5450069135157379,1.1388548354161483 l -47.590228487438196 22.27462990362756" fill="#ff0000" stroke="none" /><path d="M 119.0197475246899 91.09779779509293 l 57.0592425740697 -26.706606614721228 a84.0,84.0 0 0,0 0.6000621405797943,1.3112440711412632 l -57.50928917950454 25.72317356136528" fill="#4dd2ff" stroke="none" /><path d="M 119.83427380445688 93.10060997987247 l 58.36628152172023 -20.302822488636963 a82.79666188134925,82.79666188134925 0 0,0 0.45543911868759507,1.3464248281718942 l -58.70620606198019 19.297895985990905" fill="#44ffe8" stroke="none" /><path d="M 120.65975698304385 96.23510406497455 l 59.905745122296864 -10.916822326647576 a81.89232552932418,81.89232552932418 0 0,0 0.24015970541470422,1.3851773608738458 l -60.084319645203806 9.886851932853139" fill="#3dffb1" stroke="none" /><path d="M 120.7213421655516 96.59031103205396 l 60.959107269023804 -10.030797903456987 a82.7788771799581,82.7788771799581 0 0,0 0.21868802801970882,1.404134016092705 l -61.12231678918178 8.982875705432841" fill="#44ffe7" stroke="none" /><path d="M 120.86939407059847 97.66154086499901 l 60.975038409029146 -6.832380235491001 a82.35663557159003,82.35663557159003 0 0,0 0.1453696878046742,1.406319860760231 l -61.08334048931549 5.784655852447838" fill="#41ffce" stroke="none" /><path d="M 120.93736805541906 98.37931529534042 l 61.13238499394141 -4.732033226754989 a82.31525612363195,82.31525612363195 0 0,0 0.09695968438960437,1.4097725312992593 l -61.20460863949608 3.681917271301396" fill="#41ffcb" stroke="none" /><line stroke="#e1ed5e" stroke-width="0.3" x1="184.99686870605535" x2="189.99668451229388" y1="99.2704041080226" y2="99.22748670261217" /><path d="M 185.99683186730306 99.26182062694052 a86.0,86.0 0 0,1 -10.086455211305974,41.156179273409016" fill="none" id="id16" stroke="none" /><text fill="#e1ed5e" style="font-size:6.75px; font-family:Arial;" text-anchor="middle"><textPath startOffset="21.40746469413373" xlink:href="#id16">April</textPath></text><path d="M 120.98066250479742 100.90099992219065 l 61.34369974168693 2.6343624126029384 a82.40023911451141,82.40023911451141 0 0,0 -0.0728198793506515,1.4126862054155294 l -61.28943827287971 -3.6870204113951983" fill="#41ffd1" stroke="none" /><path d="M 120.77682067341334 103.0534771498775 l 60.99549545368539 8.96423733644742 a82.65069356191148,82.65069356191148 0 0,0 -0.21834938821676894,1.4019597056340496 l -60.83262457333036 -10.00998522401292" fill="#43ffe0" stroke="none" /><path d="M 120.16314734710363 105.8691983318838 l 58.481397460263096 17.023082483663668 a81.9086133986884,81.9086133986884 0 0,0 -0.40456489548152225,1.3466649594567683 l -58.18055624477795 -18.02448504671116" fill="#3effb2" stroke="none" /><path d="M 120.05942366710727 106.21446072829308 l 58.60575997978307 18.156214250728414 a82.35375472394739,82.35375472394739 0 0,0 -0.429946538379534,1.3468014078089543 l -58.28544872562628 -19.15958469222875" fill="#41ffce" stroke="none" /><path d="M 119.16976305983485 108.57439118712176 l 55.748369546055514 24.935536607317037 a82.07095621437753,82.07095621437753 0 0,0 -0.5862818293503385,1.281131604154705 l -55.31210325185012 -25.88885719368643" fill="#3fffbc" stroke="none" /><line stroke="#e1ed5e" stroke-width="0.3" x1="174.33088141563837" x2="178.70328620479359" y1="141.23008692659167" y2="143.65538615756765" /><path d="M 175.20536237346943 141.71514677278685 a86.0,86.0 0 0,1 -30.301960400862466,31.631185727798858" fill="none" id="id17" stroke="none" /><text fill="#e1ed5e" style="font-size:6.75px; font-family:Arial;" text-anchor="middle"><textPath startOffset="22.145653131862474" xlink:href="#id17">May</textPath></text><line stroke="#e1ed5e" stroke-width="0.3" x1="143.1302829299769" x2="145.66735839644613" y1="173.24464959558577" y2="177.55315839532614" /><path d="M 143.63769802327073 174.10635135553383 a86.0,86.0 0 0,1 -40.68552437913181,11.842963189579606" fill="none" id="id18" stroke="none" /><text fill="#e1ed5e" style="font-size:6.75px; font-family:Arial;" text-anchor="middle"><textPath startOffset="21.407464694133747" xlink:href="#id18">June</textPath></text><line stroke="#e1ed5e" stroke-width="0.3" x1="101.45913802915013" x2="101.54496967792366" y1="184.9874750549273" y2="189.98673829345242" /><path d="M 101.47630435890484 185.9873277026323 a86.0,86.0 0 0,1 -42.54439059252881,-10.42667462771756" fill="none" id="id19" stroke="none" /><text fill="#e1ed5e" style="font-size:6.75px; font-family:Arial;" text-anchor="middle"><textPath startOffset="22.145653131862474" xlink:href="#id19">July</textPath></text><line stroke="#e1ed5e" stroke-width="0.3" x1="58.13341422392154" x2="55.67067388415222" y1="173.97424548756322" y2="178.32567169271397" /><path d="M 57.64086615596768 174.84453072859336 a86.0,86.0 0 0,1 -31.369924170532247,-30.572349798747897" fill="none" id="id20" stroke="none" /><text fill="#e1ed5e" style="font-size:6.75px; font-family:Arial;" text-anchor="middle"><textPath startOffset="22.145653131862474" xlink:href="#id20">August</textPath></text><line stroke="#e1ed5e" stroke-width="0.3" x1="26.387840678322732" x2="22.057713659400534" y1="142.50000000000003" y2="145.00000000000006" /><path d="M 25.521815274538284 143.00000000000003 a86.0,86.0 0 0,1 -11.493303480769212,-40.785679425670985" fill="none" id="id21" stroke="none" /><text fill="#e1ed5e" style="font-size:6.75px; font-family:Arial;" text-anchor="middle"><textPath startOffset="21.40746469413373" xlink:href="#id21">September</textPath></text><line stroke="#e1ed5e" stroke-width="0.3" x1="15.003131293944662" x2="10.003315487706104" y1="100.72959589197737" y2="100.7725132973878" /><path d="M 14.003168132696942 100.73817937305945 a86.0,86.0 0 0,1 10.791469493833604,-42.45332614584628" fill="none" id="id22" stroke="none" /><text fill="#e1ed5e" style="font-size:6.75px; font-family:Arial;" text-anchor="middle"><textPath startOffset="22.145653131862435" xlink:href="#id22">October</textPath></text><line stroke="#e1ed5e" stroke-width="0.3" x1="26.387840678322718" x2="22.05771365940052" y1="57.49999999999999" y2="54.99999999999999" /><path d="M 25.521815274538284 56.99999999999999 a86.0,86.0 0 0,1 29.574782752854787,-30.34633250058573" fill="none" id="id23" stroke="none" /><text fill="#e1ed5e" style="font-size:6.75px; font-family:Arial;" text-anchor="middle"><textPath startOffset="21.40746469413373" xlink:href="#id23">November</textPath></text><line stroke="#e1ed5e" stroke-width="0.3" x1="56.869717070023135" x2="54.33264160355391" y1="26.7553504044142" y2="22.446841604673864" /><path d="M 56.362301976729285 25.89364864446614 a86.0,86.0 0 0,1 42.16139366436587,-11.88097634709845" fill="none" id="id24" stroke="none" /><text fill="#e1ed5e" style="font-size:6.75px; font-family:Arial;" text-anchor="middle"><textPath startOffset="22.145653131862474" xlink:href="#id24">December</textPath></text></svg>