<?xml version="1.0" encoding="utf-8" ?>
<svg baseProfile="full" height="200mm" version="1.1" viewBox="0,0,200,200" width="200mm" xmlns="http://www.w3.org/2000/svg" xmlns:ev="http://www.w3.org/2001/xml-events" xmlns:xlink="http://www.w3.org/1999/xlink"><defs /><rect fill="#1a1a1a" height="200" width="200" x="0" y="0" /><text alignment-baseline="middle" fill="#e1ed5e" style="dominant-baseline: central; font-size:9.0px; font-family:Arial;" text-anchor="middle" x="100.0" y="100.0">2023</text><line stroke="#e1ed5e" stroke-width="0.3" x1="100.0" x2="100.0" y1="15.0" y2="10.0" /><path d="M 100.0 14.0 a86.0,86.0 0 0,1 42.46469731375804,11.215312516191453" fill="none" id="id49" stroke="none" /><text fill="#e1ed5e" style="font-size:6.75px; font-family:Arial;" text-anchor="middle"><textPath startOffset="22.20632615414155" xlink:href="#id49">January</textPath></text><line stroke="#e1ed5e" stroke-width="0.3" x1="143.23703022742887" x2="145.7803849466894" y1="26.81831364943548" y2="22.513508569990506" /><path d="M 143.74570117128098 25.957352633546492 a86.0,86.0 0 0,1 28.547481713284135,27.462654790039103" fill="none" id="id50" stroke="none" /><text fill="#e1ed5e" style="font-size:6.75px; font-family:Arial;" text-anchor="middle"><textPath startOffset="19.985693538727396" xlink:href="#id50">February</textPath></text><path d="M 116.38621287248628 86.86637796730983 l 6.222561035413767 -4.987410169172878 a28.974617610582886,28.974617610582886 0 0,0 0.308574047378911,0.3918577039860848 l -6.307489163386642 4.879560071233755" fill="#ff2b04" stroke="none" /><line stroke="#e1ed5e" stroke-width="0.3" x1="172.23445277983987" x2="176.4835382374775" y1="55.19839476539836" y2="52.563006222186495" /><path d="M 173.08426987136738 54.67131705675599 a86.0,86.0 0 0,1 12.851231095245387,41.99856678651699" fill="none" id="id51" stroke="none" /><text fill="#e1ed5e" style="font-size:6.75px; font-family:Arial;" text-anchor="middle"><textPath startOffset="22.20632615414155" xlink:href="#id51">March</textPath></text><path d="M 118.21658344932153 89.55222093294921 l 11.894623215462326 -6.8219375925616905 a34.712071103761886,34.712071103761886 0 0,0 0.2928084833783371,0.5208736194814909 l -12.010289340133099 6.616180463145406" fill="#ff800b" stroke="none" /><path d="M 120.37134235888165 94.90015583598534 l 25.357647365369388 -6.348135908335887 a47.14018189334436,47.14018189334436 0 0,0 0.19028291496640118,0.7888455285515746 l -25.46316308059661 5.910705148124905" fill="#d7ff1c" stroke="none" /><path d="M 120.73433829027371 96.67025291283417 l 15.606039572179146 -2.506188723275249 a36.8059942124845,36.8059942124845 0 0,0 0.09507182248259623,0.6264045238492298 l -15.646867288101042 2.2371850870339363" fill="#ff9e0e" stroke="none" /><path d="M 120.94382443527127 98.46500227214037 l 13.05720613097668 -0.9569781204568468 a34.09222819346837,34.09222819346837 0 0,0 0.037857648229251695,0.5856410619148016 l -13.071744370210347 0.7320779942890099" fill="#ff770a" stroke="none" /><line stroke="#e1ed5e" stroke-width="0.3" x1="184.98032266829074" x2="189.97916517819016" y1="98.17113171792111" y2="98.06355123074" /><path d="M 185.9800911702706 98.14961562048488 a86.0,86.0 0 0,1 -9.607161424134198,41.387399972396054" fill="none" id="id52" stroke="none" /><text fill="#e1ed5e" style="font-size:6.75px; font-family:Arial;" text-anchor="middle"><textPath startOffset="21.466115282336823" xlink:href="#id52">April</textPath></text><path d="M 120.95626037817324 101.35467743843564 l 7.874841125985725 0.509054068432409 a28.891277387350144,28.891277387350144 0 0,0 -0.036352713007475904,0.49600388662205397 l -7.864911854313911 -0.6445310915512332" fill="#ff2904" stroke="none" /><path d="M 120.92983693683757 101.71520430193887 l 13.05886849473706 1.0701768718132854 a34.10264572137247,34.10264572137247 0 0,0 -0.05298155165141172,0.5846470075918356 l -13.038512346808574 -1.2948052679536917" fill="#ff770b" stroke="none" /><path d="M 120.70491114924044 103.5080841355445 l 15.51969611236162 2.6295403698095434 a36.74088466308392,36.74088466308392 0 0,0 -0.11101618302277202,0.6226377110983354 l -15.47213348699966 -2.8962968316410973" fill="#ff9d0e" stroke="none" /><path d="M 120.5718875245553 104.21870165774334 l 12.889108198518395 2.643184883206201 a34.157337742868954,34.157337742868954 0 0,0 -0.1230737045203829,0.5749593741732705 l -12.84170045527357 -2.8646580767956404" fill="#ff780b" stroke="none" /><path d="M 120.49622156327973 104.57218783832717 l 8.014624215256843 1.7878596429407474 a29.211616370400993,29.211616370400993 0 0,0 -0.11370195192239883,0.48982503302514013 l -7.982661697403891 -1.9255533333144523" fill="#ff2e04" stroke="none" /><path d="M 120.13307415673323 105.97154293290107 l 17.805161448325503 5.281075566909993 a39.571847871021085,39.571847871021085 0 0,0 -0.19931628891496295,0.6513771645373948 l -17.71161838690441 -5.586779703999445" fill="#ffc412" stroke="none" /><path d="M 119.9155931802556 106.66101706037122 l 13.527619328019007 4.5244800049177165 a35.26420008267879,35.26420008267879 0 0,0 -0.19749491757978593,0.5740126758085791 l -13.44773357949599 -4.756665383815596" fill="#ff880c" stroke="none" /><path d="M 119.79798401119884 107.00284435728193 l 27.072249488318935 9.575861333202623 a49.71591566763125,49.71591566763125 0 0,0 -0.2923194965172664,0.8043377081873866 l -26.90340573079644 -10.040446838396141" fill="#b7ff1f" stroke="none" /><path d="M 119.26925614724726 108.34839909993367 l 16.018415538032052 6.939973439461189 a38.45717238528317,38.45717238528317 0 0,0 -0.26839245090902614,0.6051541232621094 l -15.896582002391751 -7.214675899215987" fill="#ffb510" stroke="none" /><path d="M 119.12269723197855 108.67885076344098 l 11.943187671795446 5.420424858787366 a34.115667631252585,34.115667631252585 0 0,0 -0.24729859890154227,0.5326591813177559 l -11.848114456054073 -5.6252041073839525" fill="#ff770b" stroke="none" /><path d="M 118.81262510543309 109.33194174019688 l 28.07895119601743 13.928472779239698 a52.34373708143861,52.34373708143861 0 0,0 -0.40733729248602346,0.8037151221738754 l -27.83503523374514 -14.409742113116266" fill="#97ff23" stroke="none" /><line stroke="#e1ed5e" stroke-width="0.3" x1="174.80103733775053" x2="179.2010983576182" y1="140.37084112569926" y2="142.7455964860345" /><path d="M 175.68104954172406 140.8457921977663 a86.0,86.0 0 0,1 -30.038265399797805,32.042727171017184" fill="none" id="id53" stroke="none" /><text fill="#e1ed5e" style="font-size:6.75px; font-family:Arial;" text-anchor="middle"><textPath startOffset="22.206326154141568" xlink:href="#id53">May</textPath></text><path d="M 113.20401910651253 116.32954008644616 l 3.3078278538844943 4.090823188253978 a26.260851591566762,26.260851591566762 0 0,0 -0.35394939418355226,0.28119880534704167 l -3.236920966983591 -4.1471559076061455" fill="#ff0100" stroke="none" /><line stroke="#e1ed5e" stroke-width="0.3" x1="143.8653032363475" x2="146.44561519142675" y1="172.8068346515853" y2="177.08958963109032" /><path d="M 144.38136562736335 173.6633856474863 a86.0,86.0 0 0,1 -40.68145358897372,12.25698825130547" fill="none" id="id54" stroke="none" /><text fill="#e1ed5e" style="font-size:6.75px; font-family:Arial;" text-anchor="middle"><textPath startOffset="21.466115282336833" xlink:href="#id54">June</textPath></text><path d="M 109.89434966115114 118.52300852407294 l 5.752547897248021 10.769226617716479 a33.209342703596526,33.209342703596526 0 0,0 -0.5065359328132053,0.2649956596812238 l -5.56632106190832 -10.86665169634242" fill="#ff6a09" stroke="none" /><path d="M 109.57404056367764 118.69057910512821 l 3.572751722543117 6.974777080694185 a28.836585365853658,28.836585365853658 0 0,0 -0.443734756035624,0.22249781845869004 l -3.4521630588247327 -7.035242740062177" fill="#ff2903" stroke="none" /><path d="M 109.2508944713604 118.85261126421891 l 5.768519727408029 11.755799434042085 a34.0948325754444,34.0948325754444 0 0,0 -0.5290987629995395,0.2539995595186556 l -5.565308296408257 -11.853353270060301" fill="#ff770a" stroke="none" /><path d="M 108.92500713936063 119.00905698771935 l 6.903505935699743 14.70353308380392 a37.24353038445639,37.24353038445639 0 0,0 -0.5826519848524986,0.2674669489705612 l -6.649385955079824 -14.820187103108555" fill="#ffa40f" stroke="none" /><path d="M 108.59647513512805 119.15986991738527 l 2.2281892971166952 4.966200263828262 a26.443158329888384,26.443158329888384 0 0,0 -0.41689442951322114,0.1827542665006579 l -2.1423741929457205 -5.003819083623375" fill="#ff0400" stroke="none" /><path d="M 108.2653958097858 119.30500536409082 l 3.7219907629597655 8.693237843366733 a30.456510954940057,30.456510954940057 0 0,0 -0.48371979274289256,0.20219491259736588 l -3.571799510719412 -8.756017798984072" fill="#ff4106" stroke="none" /><path d="M 107.2578585660854 119.70592522655815 l 4.573441013759396 12.417421175213963 a34.232864820173624,34.232864820173624 0 0,0 -0.5547035372338845,0.1988969530455251 l -4.359017915895777 -12.49430566929945" fill="#ff790b" stroke="none" /><path d="M 106.91757812671514 119.82793768551818 l 5.167164909946913 14.810707153353786 a36.68619264158743,36.68619264158743 0 0,0 -0.598037815452903,0.20288689692733436 l -4.911457361556783 -14.897457037179244" fill="#ff9c0e" stroke="none" /><path d="M 106.57524785965236 119.94407469862006 l 4.692916672050354 14.23457832458352 a35.98821827201323,35.98821827201323 0 0,0 -0.5899988275839217,0.18889899304348343 l -4.447196499375493 -14.31325016428671" fill="#ff920d" stroke="none" /><path d="M 105.18746579009965 120.34920634021253 l 6.456561389347681 25.327569429149186 a47.137577511368335,47.137577511368335 0 0,0 -0.7879757976441969,0.19366527970503522 l -6.019632306960273 -25.43495596716825" fill="#d7ff1c" stroke="none" /><path d="M 101.62511606390274 120.93702456842531 l 1.2900828348542441 16.620656584847925 a37.67064902852418,37.67064902852418 0 0,0 -0.6469256602529919,0.04461578116597097 l -1.003794413822322 -16.64040071053018" fill="#ffaa0f" stroke="none" /><path d="M 101.26447882468166 120.96189622390904 l 0.9463988888326378 15.688926462747956 a36.71744522529971,36.71744522529971 0 0,0 -0.6312112297003671,0.03262641062392191 l -0.6761995907187911 -15.702892680134081" fill="#ff9c0e" stroke="none" /><line stroke="#e1ed5e" stroke-width="0.3" x1="102.19456741930631" x2="102.32365962044197" y1="184.97166512339345" y2="189.96999836594603" /><path d="M 102.22038585953345 185.97133177190398 a86.0,86.0 0 0,1 -42.740103519485714,-10.115201625700543" fill="none" id="id55" stroke="none" /><text fill="#e1ed5e" style="font-size:6.75px; font-family:Arial;" text-anchor="middle"><textPath startOffset="22.20632615414155" xlink:href="#id55">July</textPath></text><path d="M 100.54218724476979 120.99299961872073 l 0.6740245896948024 26.09762234535635 a47.10632492765606,47.10632492765606 0 0,0 -0.8107678423747026,0.01395810367417274 l -0.2246970574274319 -26.105357926309683" fill="#d7ff1c" stroke="none" /><path d="M 100.18074693466247 120.99922214144158 l 0.067875368105573 7.885776516447098 a28.8860686233981,28.8860686233981 0 0,0 -0.4972446055360515,0.0 l 0.06787536810556757 -7.885776516447098" fill="#ff2904" stroke="none" /><path d="M 99.81925306533755 120.99922214144158 l -0.0790384900727316 9.18271069913886 a30.18305084745763,30.18305084745763 0 0,0 -0.5194938694424027,-0.008943558080123065 l 0.23709204940780224 -9.179989663779578" fill="#ff3d05" stroke="none" /><path d="M 99.45781275523022 120.99299961872073 l -0.34003814346433797 13.165969293741723 a34.17035965274907,34.17035965274907 0 0,0 -0.5878597865950548,-0.02024707966723946 l 0.5666182817340358 -13.15816541564839" fill="#ff780b" stroke="none" /><path d="M 99.09653310690486 120.98055641714683 l -0.49255565879035423 11.438262837095179 a32.44886316659777,32.44886316659777 0 0,0 -0.5578298461695168,-0.02883343128740875 l 0.6893735733733599 -11.428089599045569" fill="#ff5f08" stroke="none" /><path d="M 98.37488393609728 120.93702456842531 l -1.0498424444236367 13.525542907432095 a34.566225713104586,34.566225713104586 0 0,0 -0.5928201240382404,-0.05115101475901029 l 1.2825068862034188 -13.505467640394421" fill="#ff7e0b" stroke="none" /><path d="M 96.58105272829116 120.7198165907248 l -2.568238564457273 15.56427396734437 a36.77474162877222,36.77474162877222 0 0,0 -0.6236839073779451,-0.10843544172268116 l 2.835771443307268 -15.517759947100682" fill="#ff9d0e" stroke="none" /><path d="M 95.86986931433489 120.58985236759428 l -3.1162937277701297 15.535592617334881 a36.84505994212485,36.84505994212485 0 0,0 -0.6207665148414208,-0.13008765878479286 l 3.383251704040937 -15.479648977823548" fill="#ff9e0e" stroke="none" /><path d="M 94.81253420990036 120.34920634021253 l -4.300728665582816 16.870745479659465 a38.41029350971476,38.41029350971476 0 0,0 -0.6392745083838636,-0.16883820793976978 l 4.5904936167781685 -16.79421592241611" fill="#ffb410" stroke="none" /><path d="M 94.46302465271185 120.25689768951611 l -2.0772241123042563 7.599476913284774 a28.878255477470027,28.878255477470027 0 0,0 -0.4783735714344778,-0.1351931496318349 l 2.207728851843348 -7.562594970314418" fill="#ff2904" stroke="none" /><path d="M 91.7346041902142 119.30500536409082 l -3.0475016629797227 7.117872792158991 a28.742827614716823,28.742827614716823 0 0,0 -0.453150284529011,-0.19864776787821337 l 3.169572622166477 -7.064360470986325" fill="#ff2703" stroke="none" /><path d="M 90.42595943632237 118.69057910512821 l -11.921045960230272 23.272436653429594 a47.14799503927243,47.14799503927243 0 0,0 -0.7191396066054578,-0.37621985353916626 l 12.319876469362224 -23.06378738094571" fill="#d7ff1c" stroke="none" /><path d="M 90.10565033884886 118.52300852407294 l -7.988286435811561 14.954706757963798 a37.954526663910706,37.954526663910706 0 0,0 -0.5736143309261279,-0.3127802689153798 l 8.244523578606328 -14.814985837288653" fill="#ffae10" stroke="none" /><line stroke="#e1ed5e" stroke-width="0.3" x1="58.666819895761336" x2="56.23545636021788" y1="174.27360380694188" y2="178.64263932499728" /><path d="M 58.180547188652646 175.14741091055294 a86.0,86.0 0 0,1 -31.652253787137756,-30.449443065178592" fill="none" id="id56" stroke="none" /><text fill="#e1ed5e" style="font-size:6.75px; font-family:Arial;" text-anchor="middle"><textPath startOffset="22.20632615414155" xlink:href="#id56">August</textPath></text><path d="M 89.7882731507175 118.34994917583269 l -4.445203957128758 7.987803423791578 a30.141380735841256,30.141380735841256 0 0,0 -0.45118953338138423,-0.25619719237744265 l 4.5820422574313495 -7.910103065619502" fill="#ff3c05" stroke="none" /><path d="M 88.54995079064634 117.60387380957326 l -7.767478607916238 11.942107036589386 a35.24596940884663,35.24596940884663 0 0,0 -0.5057382071582287,-0.33517570664292984 l 7.971891513814429 -11.806633308855139" fill="#ff870c" stroke="none" /><path d="M 87.95078237400918 117.19931262002967 l -10.594744063862121 15.1231657473349 a39.465068210004134,39.465068210004134 0 0,0 -0.5530233847039978,-0.39456750130474544 l 10.853494776415003 -14.938553984185935" fill="#ffc312" stroke="none" /><path d="M 87.65650970185807 116.9893568818739 l -7.807168315897959 10.745645320077333 a34.28234807771807,34.28234807771807 0 0,0 -0.4744269333679577,-0.35096970335950894 l 7.990980219684482 -10.609665667978055" fill="#ff7a0b" stroke="none" /><path d="M 87.36589467227662 116.77436683061367 l -7.881300099022141 10.464042805868546 a34.10004133939644,34.10004133939644 0 0,0 -0.46582486749796775,-0.35717464460607823 l 8.060253695013595 -10.326828819435102" fill="#ff770b" stroke="none" /><path d="M 86.79598089348748 116.32954008644616 l -4.961741780826739 6.136234782380967 a28.891277387350144,28.891277387350144 0 0,0 -0.38401993063384693,-0.31602225896788033 l 5.066631840005275 -6.049917404555907" fill="#ff2904" stroke="none" /><path d="M 86.51685102203217 116.09983520530335 l -9.548009177039646 11.400999465351232 a35.87102108309219,35.87102108309219 0 0,0 -0.4699693471614726,-0.40051807341825735 l 9.742844000778176 -11.234957001710024" fill="#ff900d" stroke="none" /><path d="M 86.24171649860922 115.8653595955263 l -13.718470361866292 15.819449088222168 a41.939231087226126,41.939231087226126 0 0,0 -0.5413309190195431,-0.47766159656803336 l 13.988743633792422 -15.580964349881846" fill="#ffe415" stroke="none" /><path d="M 85.70375840098266 115.38237550388516 l -14.290331619026006 15.376016522692979 a41.991318726746584,41.991318726746584 0 0,0 -0.525219747437631,-0.49662805376599584 l 14.552887200854451 -15.127753832181053" fill="#ffe515" stroke="none" /><path d="M 85.44109423537348 115.13401014063109 l -12.368148551594667 12.85671386481889 a38.84001653575858,38.84001653575858 0 0,0 -0.47782476770181753,-0.4676521039786785 l 12.587623271672278 -12.64191165791764" fill="#ffba11" stroke="none" /><path d="M 84.9287848128048 114.62390073753433 l -18.747121330413535 18.19070579546953 a47.1219512195122,47.1219512195122 0 0,0 -0.5598389578813637,-0.586988909131951 l 19.057466839673854 -17.865309769755076" fill="#d7ff1c" stroke="none" /><path d="M 84.4343377721795 114.09645910891817 l -15.926008273607172 14.42279301139829 a42.48615130219099,42.48615130219099 0 0,0 -0.486246213237311,-0.5463027752328232 l 16.171913336492818 -14.146516066424601" fill="#ffeb16" stroke="none" /><path d="M 84.19399662182784 113.82643327865904 l -14.01565822496044 12.260313924234653 a39.62133112856552,39.62133112856552 0 0,0 -0.44462206958204015,-0.5171959154306638 l 14.224622804113261 -12.017240909642458" fill="#ffc512" stroke="none" /><path d="M 83.72743513129214 113.27417163493432 l -14.429372320536727 11.77060692721543 a39.62133112856552,39.62133112856552 0 0,0 -0.4265558699386584,-0.5321940337117913 l 14.629846102530246 -11.52048505992538" fill="#ffc512" stroke="none" /><path d="M 83.28015986056508 112.70617746262583 l -6.324371115164513 4.806181222944457 a28.94336502687061,28.94336502687061 0 0,0 -0.2980322186186798,-0.39926286056881977 l 6.406164600478278 -4.696605482866332" fill="#ff2a04" stroke="none" /><path d="M 83.06392112726016 112.41649034213515 l -32.59792609817143 23.898792489864086 a61.42000826787929,61.42000826787929 0 0,0 -0.6177688999349223,-0.8580269704147089 l 33.00447479048196 -23.334131913998238" fill="#33ff2f" stroke="none" /><path d="M 82.24976979558568 111.22182372390057 l -11.072797593410996 7.000302604119862 a34.10004133939644,34.10004133939644 0 0,0 -0.3093935078066429,-0.4988408476218446 l 11.191655740885595 -6.808665425132753" fill="#ff770b" stroke="none" /><path d="M 82.05923443525364 110.91462005526583 l -22.294312231346662 13.563186393604417 a47.095907399751965,47.095907399751965 0 0,0 -0.41538393937043905,-0.6962073752244098 l 22.524477046415335 -13.177416924493896" fill="#d7ff1c" stroke="none" /><line stroke="#e1ed5e" stroke-width="0.3" x1="26.63291911575756" x2="22.317208475507996" y1="142.92168965132927" y2="145.44649492493687" /><path d="M 25.769776987707644 143.4266507060508 a86.0,86.0 0 0,1 -11.730757126820373,-40.83630448921669" fill="none" id="id57" stroke="none" /><text fill="#e1ed5e" style="font-size:6.75px; font-family:Arial;" text-anchor="middle"><textPath startOffset="21.46611528233685" xlink:href="#id57">September</textPath></text><path d="M 81.87401531095188 110.60418214915194 l -5.440043358515481 3.182569756215093 a27.302604381976025,27.302604381976025 0 0,0 -0.23382470942570222,-0.40769309002712883 l 5.49402006409356 -3.0884568203296574" fill="#ff1101" stroke="none" /><path d="M 81.35079622478065 109.6543875284942 l -11.63358763820008 6.022517891896543 a34.10004133939644,34.10004133939644 0 0,0 -0.2653654340965458,-0.5235911766977484 l 11.735531742082893 -5.82137250349611" fill="#ff770b" stroke="none" /><path d="M 81.02952815118164 109.00673069616217 l -56.9114155464551 27.020192088486496 a84.0,84.0 0 0,0 -0.6089015326406932,-1.3115197308846915 l 57.36809169593562 -26.03655229032298" fill="#4dd2ff" stroke="none" /><path d="M 80.20201598880116 107.00284435728193 l -13.332334003407563 4.715846820178693 a35.1417941298057,35.1417941298057 0 0,0 -0.19680939079859908,-0.5720202140944713 l 13.41153422514939 -4.485653902994925" fill="#ff860c" stroke="none" /><path d="M 80.0844068197444 106.66101706037122 l -14.522987337730832 4.857393176723787 a36.31376601901612,36.31376601901612 0 0,0 -0.1931680504336623,-0.5945101287279241 l 14.604447639180744 -4.60668414801806" fill="#ff970d" stroke="none" /><path d="M 79.86692584326677 105.97154293290107 l -20.099782591364505 5.96166853367346 a41.96527490698636,41.96527490698636 0 0,0 -0.1994496871817168,-0.694310526420332 l 20.199424915432328 -5.614800531748532" fill="#ffe415" stroke="none" /><path d="M 79.67330655649465 105.27499134158121 l -25.23400595735699 6.548490698126654 a47.06986357999173,47.06986357999173 0 0,0 -0.19677149809515504,-0.7860043219459865 l 25.34298876974721 -6.113158536783276" fill="#d8ff1c" stroke="none" /><path d="M 79.4281124754447 104.21870165774334 l -12.832979857194678 2.631674576905622 a34.10004133939644,34.10004133939644 0 0,0 -0.11296867435782644,-0.5760248367412456 l 12.87637846452817 -2.410386013096421" fill="#ff770b" stroke="none" /><path d="M 79.18660465613746 102.79330883721812 l -21.39847632087067 2.871830954180022 a42.59032658123191,42.59032658123191 0 0,0 -0.09126192461139442,-0.727447332561378 l 21.444739754728914 -2.5030658673312356" fill="#ffed16" stroke="none" /><path d="M 79.10278846688536 102.07522291339032 l -17.104786620738736 1.6986115620143956 a38.18892104175279,38.18892104175279 0 0,0 -0.059329950796670354,-0.654701063156204 l 17.13149116781248 -1.4039291103096254" fill="#ffb110" stroke="none" /><path d="M 79.07016306316243 101.71520430193888 l -26.086588823714465 2.1378011452442025 a47.17403885903266,47.17403885903266 0 0,0 -0.059357164207524495,-0.8098813461250942 l 26.119522546586325 -1.6884466626223475" fill="#d6ff1c" stroke="none" /><path d="M 79.0235259727143 100.99374915477108 l -24.557823251456433 1.1634136446100434 a45.58536585365854,45.58536585365854 0 0,0 -0.03038561405471032,-0.7841176833110802 l 24.574210998362346 -0.7405187142849665" fill="#eaff1a" stroke="none" /><line stroke="#e1ed5e" stroke-width="0.3" x1="15.007084014347285" x2="10.007500721073583" y1="101.09737516637583" y2="101.16192664675087" /><path d="M 14.007167355692545 101.11028546245083 a86.0,86.0 0 0,1 10.666146001902534,-42.60595125391555" fill="none" id="id58" stroke="none" /><text fill="#e1ed5e" style="font-size:6.75px; font-family:Arial;" text-anchor="middle"><textPath startOffset="22.20632615414155" xlink:href="#id58">October</textPath></text><path d="M 79.01574976396665 99.18683210126434 l -13.090216455632211 -0.5072634804432002 a34.10004133939644,34.10004133939644 0 0,0 0.02777755554312389,-0.5863402948263001 l 13.07954529185559 0.7325148818925095" fill="#ff770b" stroke="none" /><path d="M 79.05617556472873 98.46500227214037 l -8.883159929966233 -0.6510573248383561 a29.906986357999173,29.906986357999173 0 0,0 0.042048533791580224,-0.5130986172878063 l 8.870636912355156 0.8038698593339408" fill="#ff3905" stroke="none" /><path d="M 79.54389044137918 95.25157060432595 l -5.084007055247146 -1.1801387981311444 a26.219181479950393,26.219181479950393 0 0,0 0.10583459969090005,-0.4387527421836667 l 5.06293965529543 1.267476771974208" fill="#ff0000" stroke="none" /><path d="M 80.14247586403 93.16781622104843 l -12.338097881919351 -4.245048457943039 a34.04795369987598,34.04795369987598 0 0,0 0.1954464725357284,-0.5525534969635516 l 12.263198328573813 4.456799581333201" fill="#ff760a" stroke="none" /><path d="M 80.52162464483688 92.15188598940014 l -19.3736961986451 -7.80593729206418 a41.88714344770567,41.88714344770567 0 0,0 0.2752151140033382,-0.6664552284261155 l 19.23645939775556 8.138267090943607" fill="#ffe315" stroke="none" /><path d="M 80.65960295795067 91.81776055985345 l -7.291625507378664 -3.084829421006055 a28.917321207110376,28.917321207110376 0 0,0 0.19788989066309973,-0.45675715146012313 l 7.237444906872886 3.2098857170527775" fill="#ff2a04" stroke="none" /><path d="M 80.95270993114464 91.15688171328213 l -7.110253382462336 -3.3010896291468534 a28.839189747829682,28.839189747829682 0 0,0 0.21291809841161696,-0.44845981613979 l 7.052377090208967 3.422991860927176" fill="#ff2903" stroke="none" /><line stroke="#e1ed5e" stroke-width="0.3" x1="26.266209847984243" x2="21.928928074336255" y1="57.711370442889674" y2="55.22380399835377" /><path d="M 25.398753493254645 57.213857153982495 a86.0,86.0 0 0,1 29.58750427330803,-30.492523968695096" fill="none" id="id59" stroke="none" /><text fill="#e1ed5e" style="font-size:6.75px; font-family:Arial;" text-anchor="middle"><textPath startOffset="21.46611528233685" xlink:href="#id59">November</textPath></text><path d="M 81.78341655067845 89.55222093294921 l -14.865455034708855 -8.52580234739903 a38.13683340223233,38.13683340223233 0 0,0 0.33150047542450295,-0.5666417699583932 l 14.71649488481403 8.780423529711314" fill="#ffb010" stroke="none" /><path d="M 81.96595687620814 89.24020034530311 l -8.387060154719244 -5.0040407654129835 a30.766432410086814,30.766432410086814 0 0,0 0.27526317109286436,-0.4524602776991022 l 8.299681185340159 5.14766881631916" fill="#ff4606" stroke="none" /><path d="M 82.34701348167596 88.62581576622439 l -19.068728306068923 -12.286375941651777 a43.684167011161634,43.684167011161634 0 0,0 0.4127183674571911,-0.6285983886169407 l 18.85441330325381 12.612792394246386" fill="#fffb17" stroke="none" /><path d="M 84.80347519578584 85.50635884689758 l -9.460920361780293 -9.023325166007538 a34.073997519636215,34.073997519636215 0 0,0 0.40845918353256666,-0.42095309320618635 l 9.304196914544614 9.18484245476385" fill="#ff770a" stroke="none" /><path d="M 85.57189188830299 84.74124197986013 l -11.756015332019354 -12.432828465355799 a38.110789582472094,38.110789582472094 0 0,0 0.48054460113293984,-0.4466138351104949 l 11.540262847091558 12.633346886540943" fill="#ffb010" stroke="none" /><path d="M 86.65592168130627 83.78471172551755 l -7.761520543365886 -9.43154634237156 a33.214551467548574,33.214551467548574 0 0,0 0.4445951207491613,-0.35949833479430066 l 7.598022024052224 9.563750774429996" fill="#ff6a09" stroke="none" /><path d="M 88.39885842347998 82.49532879139004 l -8.661290486645377 -13.068803721682343 a36.678379495659364,36.678379495659364 0 0,0 0.5292742108562988,-0.34425466946091965 l 8.435049250004791 13.215957315302798" fill="#ff9c0e" stroke="none" /><path d="M 88.70189139769569 82.29822771554957 l -8.028709668193931 -12.57930820875167 a35.92310872261265,35.92310872261265 0 0,0 0.5241024999932459,-0.3281929374145163 l 7.810988015828443 12.715645487489116" fill="#ff910d" stroke="none" /><line stroke="#e1ed5e" stroke-width="0.3" x1="56.76296977257108" x2="54.21961505331056" y1="26.818313649435495" y2="22.513508569990535" /><path d="M 56.25429882871898 25.957352633546506 a86.0,86.0 0 0,1 42.26535254187918,-11.944610805530505" fill="none" id="id60" stroke="none" /><text fill="#e1ed5e" style="font-size:6.75px; font-family:Arial;" text-anchor="middle"><textPath startOffset="22.20632615414155" xlink:href="#id60">December</textPath></text><path d="M 89.3179101791058 81.91981866633112 l -6.88882187705455 -11.659811029567361 a34.54278627532038,34.54278627532038 0 0,0 0.5145284007939156,-0.2980480602501043 l 6.687096743795312 11.776663247207514" fill="#ff7d0b" stroke="none" /><path d="M 90.58718382345135 81.22770947309562 l -8.311606181524555 -16.57611102334344 a39.54319966928483,39.54319966928483 0 0,0 0.6110906898584166,-0.2998595475757962 l 8.025044224655712 16.716725731054066" fill="#ffc412" stroke="none" /><path d="M 90.91171255644093 81.06846463323043 l -3.3813388587032485 -7.043564212522779 a28.81314592806945,28.81314592806945 0 0,0 0.4489661499365851,-0.21079562737404497 l 3.259594497467055 7.100724822536831" fill="#ff2803" stroke="none" /><path d="M 91.56875222667455 80.76684994638697 l -10.51901851173882 -23.99572007515672 a47.20008267879289,47.20008267879289 0 0,0 0.7469216241811054,-0.31979285922543677 l 10.104413129767405 24.17323246234494" fill="#d6ff1c" stroke="none" /><path d="M 92.91201910852362 80.23233633223022 l -2.909617621015316 -8.114630021535925 a29.62050434063663,29.62050434063663 0 0,0 0.48142910381813586,-0.16796116121389837 l 2.769506513133895 8.163512035922032" fill="#ff3405" stroke="none" /><path d="M 93.25333710446033 80.11325718540243 l -10.726608307666625 -31.61819465272521 a54.38817693261679,54.38817693261679 0 0,0 0.8891616860898329,-0.29314262815870185 l 10.180763799334382 31.798151005143147" fill="#80ff26" stroke="none" /><path d="M 94.28887869178378 79.79150937346287 l -3.555580277045738 -12.581226491758953 a34.073997519636215,34.073997519636215 0 0,0 0.5657940408420378,-0.15465288435584473 l 3.3384883469799775 12.640565916941092" fill="#ff770a" stroke="none" /><path d="M 94.63758080256005 79.69619591428918 l -3.3318379717867903 -12.615385506747982 a34.04795369987598,34.04795369987598 0 0,0 0.5679378828348212,-0.14478001199905688 l 3.1141912002669696 12.670868514915902" fill="#ff760a" stroke="none" /><path d="M 97.47563105711357 79.15227682838746 l -1.922235466224389 -15.874950840062134 a36.99090533278214,36.99090533278214 0 0,0 0.6327792791835848,-0.07110012495319547 l 1.6486894835310864 15.905686918485927" fill="#ffa00e" stroke="none" /></svg>