<?xml version="1.0" encoding="utf-8" ?>
<svg baseProfile="full" height="200mm" version="1.1" viewBox="0,0,200,200" width="200mm" xmlns="http://www.w3.org/2000/svg" xmlns:ev="http://www.w3.org/2001/xml-events" xmlns:xlink="http://www.w3.org/1999/xlink"><defs /><rect fill="#1a1a1a" height="200" width="200" x="0" y="0" /><text alignment-baseline="middle" fill="#e1ed5e" style="dominant-baseline: central; font-size:9.0px; font-family:Arial;" text-anchor="middle" x="100.0" y="100.0">2024</text><line stroke="#e1ed5e" stroke-width="0.3" x1="100.0" x2="100.0" y1="15.0" y2="10.0" /><path d="M 100.0 14.0 a86.0,86.0 0 0,1 42.35913384403234,11.155469271406648" fill="none" id="id61" stroke="none" /><text fill="#e1ed5e" style="font-size:6.75px; font-family:Arial;" text-anchor="middle"><textPath startOffset="22.145653131862478" xlink:href="#id61">January</textPath></text><path d="M 101.44090949804482 79.04949213459386 l 1.6395854900105233 -23.839213185200954 a44.895529411764706,44.895529411764706 0 0,0 0.7684212031699361,0.059480660960692364 l -2.048575687955693 23.80755475724521" fill="#e1ff1b" stroke="none" /><path d="M 102.15924093988457 79.11130261209362 l 4.581655246089186 -44.32335836332698 a65.55952941176471,65.55952941176471 0 0,0 1.1184583664848542,0.12532559284553194 l -5.341849514174837 44.23817700997448" fill="#35ff68" stroke="none" /><path d="M 102.51750503828377 79.15144685158666 l 0.3660748502727931 -3.031624904875163 a24.05364705882353,24.05364705882353 0 0,0 0.4095101089495591,0.05301928228152171 l -0.4180627811131439 3.0248940263932442" fill="#ff0000" stroke="none" /><path d="M 102.87502721639298 79.19773525538626 l 1.7047220200730142 -12.334519330923913 a33.451764705882354,33.451764705882354 0 0,0 0.5681621258908218,0.08350026676860378 l -1.9162092515715181 12.303437990856425" fill="#ff880c" stroke="none" /><path d="M 103.94208987418118 79.37332000966035 l 4.941989376385246 -25.858576703183456 a47.32658823529412,47.32658823529412 0 0,0 0.7966721556669399,0.15935674323838472 l -5.385158017583143 25.76993056328221" fill="#c4ff1e" stroke="none" /><path d="M 104.9986988182912 79.60360301121754 l 7.1134424595353325 -29.025272703095602 a50.884235294117644,50.884235294117644 0 0,0 0.8466039271446796,0.21520340766127374 l -7.6106516799054065 28.89888406359906" fill="#9aff22" stroke="none" /><path d="M 106.38641147887787 79.99465700312896 l 6.13095501972276 -19.20512927699619 a41.16,41.16 0 0,0 0.6712554342104249,0.22065499405203773 l -6.459733191580927 19.09705336154213" fill="#ffee16" stroke="none" /><path d="M 109.3889696526874 81.21577127319529 l 7.9662646041389955 -15.9378655973783 a38.817882352941176,38.817882352941176 0 0,0 0.5934935873454411,0.3030420545078157 l -8.238685413198015 15.79876559119765" fill="#ffd013" stroke="none" /><path d="M 110.02825361518725 81.54914285379988 l 9.386445383815268 -17.270002288843305 a40.656,40.656 0 0,0 0.6103352517297899,0.33854267572142926 l -9.681524823701158 17.10632669768873" fill="#ffe815" stroke="none" /><line stroke="#e1ed5e" stroke-width="0.3" x1="143.13028292997686" x2="145.6673583964461" y1="26.7553504044142" y2="22.446841604673864" /><path d="M 143.63769802327073 25.89364864446614 a86.0,86.0 0 0,1 29.32050498858742,28.57503671076993" fill="none" id="id62" stroke="none" /><text fill="#e1ed5e" style="font-size:6.75px; font-family:Arial;" text-anchor="middle"><textPath startOffset="20.669276256404974" xlink:href="#id62">February</textPath></text><path d="M 110.65571695917076 81.90426304109057 l 15.47962270727535 -26.287783525719252 a51.50682352941176,51.50682352941176 0 0,0 0.7580510460341895,0.45518787256789617 l -15.928606509866974 26.018181652615436" fill="#93ff23" stroke="none" /><path d="M 112.7482090630111 83.31218511350987 l 7.6849203810433995 -10.059807468044166 a33.65929411764706,33.65929411764706 0 0,0 0.45614763697525657,0.35470316149627595 l -7.856477962653882 9.926403254927099" fill="#ff8b0c" stroke="none" /><path d="M 113.86319453409587 84.22622945171908 l 17.770984428648067 -20.220118105184575 a47.91952941176471,47.91952941176471 0 0,0 0.6132215929098597,0.5483465296919849 l -18.115471048381302 19.912076045609204" fill="#bdff1f" stroke="none" /><path d="M 114.39649973595853 84.71141617570332 l 27.966471016487905 -29.69942307138668 a61.79435294117647,61.79435294117647 0 0,0 0.7660366804160957,0.7338458113878622 l -28.47218018276931 29.214965129693237" fill="#30ff3a" stroke="none" /><path d="M 117.81537515405839 88.88188828441811 l 12.625861168005612 -7.879471173490037 a35.882823529411766,35.882823529411766 0 0,0 0.32163318638232197,0.5253636382831727 l -12.759262318843335 7.66157041908231" fill="#ffa90f" stroke="none" /><line stroke="#e1ed5e" stroke-width="0.3" x1="172.87174338648825" x2="177.1583165268699" y1="56.24261187166439" y2="53.66864786411523" /><path d="M 173.72905801456457 55.72781907015455 a86.0,86.0 0 0,1 12.242430191666344,42.057860355516425" fill="none" id="id63" stroke="none" /><text fill="#e1ed5e" style="font-size:6.75px; font-family:Arial;" text-anchor="middle"><textPath startOffset="22.145653131862474" xlink:href="#id63">March</textPath></text><path d="M 118.36410011445183 89.81374322990088 l 22.036920137342204 -12.223508124118945 a46.2,46.2 0 0,0 0.3787402308462492,0.6968393663558727 l -22.243505717803796 11.84341392428847" fill="#d1ff1c" stroke="none" /><path d="M 118.70294669586156 90.45014215332178 l 21.255348833179127 -10.85313256457784 a44.86588235294118,44.86588235294118 0 0,0 0.34435651483233604,0.6889437049489755 l -21.438525261223198 10.486657003465112" fill="#e1ff1b" stroke="none" /><path d="M 118.8641267826498 90.77261029715802 l 3.169173299485167 -1.5502014700774507 a24.528,24.528 0 0,0 0.1817650267028228,0.37981899758795906 l -3.195317584147902 1.495569970424388" fill="#ff0701" stroke="none" /><path d="M 119.16976305983485 91.42560881287824 l 18.9983628254175 -8.497726042389848 a41.81223529411765,41.81223529411765 0 0,0 0.2874414330287993,0.6577222507192383 l -19.141438140463272 8.170341721894761" fill="#fff717" stroke="none" /><path d="M 119.4528033332814 92.08871423366111 l 35.78400387284564 -14.553042852055864 a59.630117647058825,59.630117647058825 0 0,0 0.37749080247266126,0.9515234174745162 l -36.02855335028442 13.936618417367782" fill="#3cff2e" stroke="none" /><path d="M 119.71291397450082 92.76114493625339 l 25.102656571764353 -9.218043201175684 a47.74164705882353,47.74164705882353 0 0,0 0.27590086518480483,0.7717438238700193 l -25.2571976069931 8.785764420924748" fill="#bfff1e" stroke="none" /><path d="M 120.35273937422433 94.82641323984039 l 14.395372837392548 -3.6592474825975985 a35.85317647058824,35.85317647058824 0 0,0 0.14650713119948025,0.5977990909749796 l -14.45606749510832 3.411592567014524" fill="#ffa90f" stroke="none" /><path d="M 120.43855184770803 95.1765574152323 l 8.771745545933987 -2.0701080646155985 a30.01270588235294,30.01270588235294 0 0,0 0.11403275927029041,0.5024493778010245 l -8.805989166761945 1.9192243528755477" fill="#ff5808" stroke="none" /><path d="M 120.51834098615036 95.52812308129327 l 23.897832442692774 -5.208421352376075 a45.45882352941176,45.45882352941176 0 0,0 0.15963036715666476,0.7638890936880656 l -23.983720520673806 4.797415807402605" fill="#daff1b" stroke="none" /><path d="M 120.77682067341334 96.94652285012252 l 62.330462020240034 -9.160431449632455 a84.0,84.0 0 0,0 0.19742193377914985,1.4284467671996575 l -62.478528470574396 8.089096374232712" fill="#4dd2ff" stroke="none" /><path d="M 120.9064616781168 98.02013634271609 l 14.875562379911813 -1.4087312234415432 a35.94211764705882,35.94211764705882 0 0,0 0.05289717376391375,0.6147453415033963 l -14.897553176373467 1.1531648345624848" fill="#ffaa0f" stroke="none" /><path d="M 120.96210409425399 98.7389718711861 l 8.937254733832528 -0.5376430516260723 a29.953411764705884,29.953411764705884 0 0,0 0.02647084346217799,0.5135272914235903 l -8.945167166751279 0.38414396682575136" fill="#ff5708" stroke="none" /><path d="M 120.99303781780057 99.45929381324524 l 26.851330253544447 -0.6915950191056199 a47.86023529411764,47.86023529411764 0 0,0 0.014104111420075493,0.8214937816290877 l -26.85924579656319 0.2305543215074658" fill="#beff1f" stroke="none" /><line stroke="#e1ed5e" stroke-width="0.3" x1="184.99686870605535" x2="189.99668451229388" y1="99.2704041080226" y2="99.22748670261217" /><path d="M 185.99683186730306 99.26182062694052 a86.0,86.0 0 0,1 -10.086455211305974,41.156179273409016" fill="none" id="id64" stroke="none" /><text fill="#e1ed5e" style="font-size:6.75px; font-family:Arial;" text-anchor="middle"><textPath startOffset="21.40746469413373" xlink:href="#id64">April</textPath></text><path d="M 120.98066250479742 100.90099992219065 l 44.60735679843517 1.9156318345681544 a65.64847058823528,65.64847058823528 0 0,0 -0.05801577470117069,1.1254905301639426 l -44.56789943427742 -2.6810941581088277" fill="#35ff69" stroke="none" /><path d="M 120.86939407059847 102.33845913500097 l 8.927190216552473 1.000310284101596 a29.98305882352941,29.98305882352941 0 0,0 -0.06170501190032022,0.5110060161008839 l -8.90870311839249 -1.1534099771258886" fill="#ff5708" stroke="none" /><path d="M 120.82617615685814 102.69636545807757 l 24.109361574527533 3.1214395420568604 a45.31058823529412,45.31058823529412 0 0,0 -0.1064917136914641,0.7705209914835812 l -24.05222534428086 -3.534848841740527" fill="#dcff1b" stroke="none" /><path d="M 120.65975698304385 103.76489593502545 l 23.50837288705883 4.284008645125429 a44.895529411764706,44.895529411764706 0 0,0 -0.14467842548807086,0.7570186574370128 l -23.4313681692886 -4.686929867595755" fill="#e1ff1b" stroke="none" /><path d="M 120.35273937422433 105.17358676015961 l 22.03842508239538 5.602081475354005 a43.73929411764706,43.73929411764706 0 0,0 -0.1912251096274183,0.7261128883039873 l -21.939010491963234 -5.979574868030796" fill="#efff19" stroke="none" /><path d="M 120.05942366710727 106.21446072829308 l 22.88190257367907 7.088871908415253 a44.95482352941177,44.95482352941177 0 0,0 -0.2346968978490672,0.7351846897590101 l -22.75684096005275 -7.480625631865647" fill="#e0ff1b" stroke="none" /><path d="M 119.58574465831526 107.57618678355244 l 18.33225700018309 7.091310829405092 a40.656,40.656 0 0,0 -0.2573744052655831,0.6487516306745398 l -18.207823919951384 -7.404963477293196" fill="#ffe815" stroke="none" /><path d="M 119.4528033332814 107.91128576633889 l 29.110548046981094 11.839006464450659 a52.42588235294117,52.42588235294117 0 0,0 -0.3461959504630326,0.8307442529007157 l -28.90302625198158 -12.336983226792652" fill="#89ff24" stroke="none" /><path d="M 119.16976305983485 108.57439118712176 l 32.232265135430545 14.417082217216969 a56.30964705882353,56.30964705882353 0 0,0 -0.4022534208263014,0.8789963196897425 l -31.980027249749185 -14.9682675191214" fill="#5fff29" stroke="none" /><path d="M 118.70294669586154 109.54985784667822 l 10.324026576115573 5.271521531366379 a32.592,32.592 0 0,0 -0.25870587695087877,0.49610263070181154 l -10.232012630189745 -5.447970405172693" fill="#ff7c0b" stroke="none" /><path d="M 118.5362547648365 109.86951160357373 l 27.9744795439203 14.894834688311022 a52.69270588235294,52.69270588235294 0 0,0 -0.4319663980475354,0.7947695190180777 l -27.714667796257427 -15.372859040803704" fill="#86ff25" stroke="none" /><line stroke="#e1ed5e" stroke-width="0.3" x1="174.33088141563837" x2="178.70328620479359" y1="141.23008692659167" y2="143.65538615756765" /><path d="M 175.20536237346943 141.71514677278685 a86.0,86.0 0 0,1 -30.301960400862466,31.631185727798858" fill="none" id="id65" stroke="none" /><text fill="#e1ed5e" style="font-size:6.75px; font-family:Arial;" text-anchor="middle"><textPath startOffset="22.145653131862474" xlink:href="#id65">May</textPath></text><path d="M 118.36410011445183 110.18625677009912 l 39.718307824009706 22.031075819000257 a66.41929411764706,66.41929411764706 0 0,0 -0.5616119311488548,0.9923144697241393 l -39.33426252783947 -22.709647058823517" fill="#36ff72" stroke="none" /><path d="M 117.62189284568427 111.42229804090321 l 14.105806932004208 9.143213631800643 a37.80988235294117,37.80988235294117 0 0,0 -0.3577095043243763,0.5416177813998835 l -13.946772988759106 -9.384011291539588" fill="#ffc312" stroke="none" /><path d="M 117.21940702142032 112.02048342749411 l 7.536022837609835 5.260729217679777 a30.19058823529412,30.19058823529412 0 0,0 -0.3003027642310482,0.42241344583645424 l -7.444604974848828 -5.389319890225734" fill="#ff5a08" stroke="none" /><path d="M 117.01052211995028 112.31430620078461 l 21.973592103182828 15.907186127601763 a48.12705882352941,48.12705882352941 0 0,0 -0.4902038421772922,0.6650556582873205 l -21.697286241421708 -16.282048095157965" fill="#baff1f" stroke="none" /><path d="M 116.57777611688842 112.89097897827486 l 26.001754257688976 20.21912138098357 a53.93788235294117,53.93788235294117 0 0,0 -0.5746530924980501,0.7260554099358403 l -25.650834734549363 -20.66249673483409" fill="#78ff26" stroke="none" /><path d="M 116.35404254752997 113.17365903436017 l 4.663788133554431 3.756817588151654 a26.988705882352942,26.988705882352942 0 0,0 -0.2937311701926156,0.358304267614784 l -4.598610144123188 -3.836324137464931" fill="#ff2c04" stroke="none" /><path d="M 115.6541949942343 113.99807769240083 l 15.580528194261438 13.932204385613062 a41.90117647058824,41.90117647058824 0 0,0 -0.4840629404378492,0.5320699668872809 l -15.33906755298171 -14.197611928058015" fill="#fff817" stroke="none" /><path d="M 115.41159269507618 114.26474011684316 l 6.614292959016224 6.122090817205156 a30.01270588235294,30.01270588235294 0 0,0 -0.353212627267284,0.3750995699522645 l -6.50822449801268 -6.2347318471019175" fill="#ff5808" stroke="none" /><path d="M 114.39649973595853 115.28858382429668 l 14.572645144492608 15.475644144029252 a42.25694117647059,42.25694117647059 0 0,0 -0.5323775519348123,0.4927607141355035 l -14.30483782124383 -15.723522604297136" fill="#fffc17" stroke="none" /><path d="M 112.45986205192187 116.90419585922612 l 21.12606257556447 28.66156126154903 a56.606117647058824,56.606117647058824 0 0,0 -0.7871457753307821,0.5698328383882422 l -20.630935789859723 -29.01999487131035" fill="#5cff2a" stroke="none" /><path d="M 112.16784306229584 117.11559508785304 l 12.093404492973558 17.010887917903815 a41.871529411764705,41.871529411764705 0 0,0 -0.5894014111514285,0.41144796020409313 l -11.799607990648372 -17.215980693913032" fill="#fff717" stroke="none" /><line stroke="#e1ed5e" stroke-width="0.3" x1="143.1302829299769" x2="145.66735839644613" y1="173.24464959558577" y2="177.55315839532614" /><path d="M 143.63769802327073 174.10635135553383 a86.0,86.0 0 0,1 -40.68552437913181,11.842963189579606" fill="none" id="id66" stroke="none" /><text fill="#e1ed5e" style="font-size:6.75px; font-family:Arial;" text-anchor="middle"><textPath startOffset="21.407464694133747" xlink:href="#id66">June</textPath></text><path d="M 109.71004243097381 118.62028667847754 l 6.908980779121128 13.248881627227314 a35.94211764705882,35.94211764705882 0 0,0 -0.5495255033542122,0.28059163753689154 l -6.680528054053334 -13.365531216437041" fill="#ffaa0f" stroke="none" /><path d="M 109.3889696526874 118.78422872680471 l 21.23453560038381 42.48329565224632 a68.49458823529412,68.49458823529412 0 0,0 -1.0562509705245162,0.516665279094656 l -20.502124380597227 -42.8415546814382" fill="#39ff8b" stroke="none" /><path d="M 108.73861861582097 119.09545874513695 l 11.818724659703273 25.826046321658158 a49.40188235294117,49.40188235294117 0 0,0 -0.7741665407645745,0.34627484668313335 l -11.37364471608307 -26.02512491925114" fill="#abff21" stroke="none" /><path d="M 108.07796709384702 119.3841803445677 l 6.876725869538481 16.50163870274022 a38.87717647058824,38.87717647058824 0 0,0 -0.6182314116126144,0.25142933299626735 l -6.5924399967354255 -16.61725529231578" fill="#ffd113" stroke="none" /><line stroke="#e1ed5e" stroke-width="0.3" x1="101.45913802915013" x2="101.54496967792366" y1="184.9874750549273" y2="189.98673829345242" /><path d="M 101.47630435890484 185.9873277026323 a86.0,86.0 0 0,1 -42.54439059252881,-10.42667462771756" fill="none" id="id67" stroke="none" /><text fill="#e1ed5e" style="font-size:6.75px; font-family:Arial;" text-anchor="middle"><textPath startOffset="22.145653131862474" xlink:href="#id67">July</textPath></text><line stroke="#e1ed5e" stroke-width="0.3" x1="58.13341422392154" x2="55.67067388415222" y1="173.97424548756322" y2="178.32567169271397" /><path d="M 57.64086615596768 174.84453072859336 a86.0,86.0 0 0,1 -31.369924170532247,-30.572349798747897" fill="none" id="id68" stroke="none" /><text fill="#e1ed5e" style="font-size:6.75px; font-family:Arial;" text-anchor="middle"><textPath startOffset="22.145653131862474" xlink:href="#id68">August</textPath></text><line stroke="#e1ed5e" stroke-width="0.3" x1="26.387840678322732" x2="22.057713659400534" y1="142.50000000000003" y2="145.00000000000006" /><path d="M 25.521815274538284 143.00000000000003 a86.0,86.0 0 0,1 -11.493303480769212,-40.785679425670985" fill="none" id="id69" stroke="none" /><text fill="#e1ed5e" style="font-size:6.75px; font-family:Arial;" text-anchor="middle"><textPath startOffset="21.40746469413373" xlink:href="#id69">September</textPath></text><line stroke="#e1ed5e" stroke-width="0.3" x1="15.003131293944662" x2="10.003315487706104" y1="100.72959589197737" y2="100.7725132973878" /><path d="M 14.003168132696942 100.73817937305945 a86.0,86.0 0 0,1 10.791469493833604,-42.45332614584628" fill="none" id="id70" stroke="none" /><text fill="#e1ed5e" style="font-size:6.75px; font-family:Arial;" text-anchor="middle"><textPath startOffset="22.145653131862435" xlink:href="#id70">October</textPath></text><line stroke="#e1ed5e" stroke-width="0.3" x1="26.387840678322718" x2="22.05771365940052" y1="57.49999999999999" y2="54.99999999999999" /><path d="M 25.521815274538284 56.99999999999999 a86.0,86.0 0 0,1 29.574782752854787,-30.34633250058573" fill="none" id="id71" stroke="none" /><text fill="#e1ed5e" style="font-size:6.75px; font-family:Arial;" text-anchor="middle"><textPath startOffset="21.40746469413373" xlink:href="#id71">November</textPath></text><line stroke="#e1ed5e" stroke-width="0.3" x1="56.869717070023135" x2="54.33264160355391" y1="26.7553504044142" y2="22.446841604673864" /><path d="M 56.362301976729285 25.89364864446614 a86.0,86.0 0 0,1 42.16139366436587,-11.88097634709845" fill="none" id="id72" stroke="none" /><text fill="#e1ed5e" style="font-size:6.75px; font-family:Arial;" text-anchor="middle"><textPath startOffset="22.145653131862474" xlink:href="#id72">December</textPath></text></svg>