<?xml version="1.0" encoding="utf-8" ?>
<svg baseProfile="full" height="200mm" version="1.1" viewBox="0,0,200,200" width="200mm" xmlns="http://www.w3.org/2000/svg" xmlns:ev="http://www.w3.org/2001/xml-events" xmlns:xlink="http://www.w3.org/1999/xlink"><defs /><rect fill="#1a1a1a" height="200" width="200" x="0" y="0" /><text alignment-baseline="middle" fill="#e1ed5e" style="dominant-baseline: central; font-size:9.0px; font-family:Arial;" text-anchor="middle" x="100.0" y="100.0">2022</text><line stroke="#e1ed5e" stroke-width="0.3" x1="100.0" x2="100.0" y1="15.0" y2="10.0" /><path d="M 100.0 14.0 a86.0,86.0 0 0,1 42.46469731375804,11.215312516191453" fill="none" id="id37" stroke="none" /><text fill="#e1ed5e" style="font-size:6.75px; font-family:Arial;" text-anchor="middle"><textPath startOffset="22.20632615414155" xlink:href="#id37">January</textPath></text><line stroke="#e1ed5e" stroke-width="0.3" x1="143.23703022742887" x2="145.7803849466894" y1="26.81831364943548" y2="22.513508569990506" /><path d="M 143.74570117128098 25.957352633546492 a86.0,86.0 0 0,1 28.547481713284135,27.462654790039103" fill="none" id="id38" stroke="none" /><text fill="#e1ed5e" style="font-size:6.75px; font-family:Arial;" text-anchor="middle"><textPath startOffset="19.985693538727396" xlink:href="#id38">February</textPath></text><line stroke="#e1ed5e" stroke-width="0.3" x1="172.23445277983987" x2="176.4835382374775" y1="55.19839476539836" y2="52.563006222186495" /><path d="M 173.08426987136738 54.67131705675599 a86.0,86.0 0 0,1 12.851231095245387,41.99856678651699" fill="none" id="id39" stroke="none" /><text fill="#e1ed5e" style="font-size:6.75px; font-family:Arial;" text-anchor="middle"><textPath startOffset="22.20632615414155" xlink:href="#id39">March</textPath></text><path d="M 118.03404312379186 89.2402003453031 l 46.40525472248329 -27.687149260520982 a75.03726399470023,75.03726399470023 0 0,0 0.6522536474499401,1.1149129146182026 l -46.87496804440355 26.884256933548883" fill="#37ff77" stroke="none" /><path d="M 118.21658344932153 89.55222093294921 l 27.976544936329677 -16.04542154500861 a53.25124213315667,53.25124213315667 0 0,0 0.4491928874083343,0.7990640244101309 l -28.248595465030448 15.561474010663689" fill="#ff1001" stroke="none" /><path d="M 118.3937258080291 89.86733742301442 l 30.88976145965801 -17.016429037865827 a56.266644584299435,56.266644584299435 0 0,0 0.46002510282273534,0.8523566498256844 l -31.17809466169921 16.48219140470768" fill="#ff6409" stroke="none" /><path d="M 120.08093135843002 93.85539295169968 l 36.03792186153489 -11.027320631895035 a58.6873136800265,58.6873136800265 0 0,0 0.28727189336487835,0.9685380139183595 l -36.222399652011475 10.405353231230146" fill="#ffa40f" stroke="none" /><path d="M 120.94382443527127 98.46500227214037 l 52.50871386239423 -3.848425903335397 a73.64955283206359,73.64955283206359 0 0,0 0.08178400213489519,1.2651623145706732 l -52.56717845553354 2.9440045245116884" fill="#34ff58" stroke="none" /><line stroke="#e1ed5e" stroke-width="0.3" x1="184.98032266829074" x2="189.97916517819016" y1="98.17113171792111" y2="98.06355123074" /><path d="M 185.9800911702706 98.14961562048488 a86.0,86.0 0 0,1 -9.607161424134198,41.387399972396054" fill="none" id="id40" stroke="none" /><text fill="#e1ed5e" style="font-size:6.75px; font-family:Arial;" text-anchor="middle"><textPath startOffset="21.466115282336823" xlink:href="#id40">April</textPath></text><path d="M 120.95626037817324 101.35467743843564 l 32.02788518876824 2.0703814842471173 a53.0947333554157,53.0947333554157 0 0,0 -0.06680693200235525,0.9115275088175397 l -31.987501698101543 -2.621382129561427" fill="#ff0b01" stroke="none" /><path d="M 120.92983693683757 101.71520430193887 l 52.36965492576053 4.2917036425459525 a73.54521364690295,73.54521364690295 0 0,0 -0.11425915652947415,1.2608402712407962 l -52.28802117295398 -5.192525302335319" fill="#33ff55" stroke="none" /><line stroke="#e1ed5e" stroke-width="0.3" x1="174.80103733775053" x2="179.2010983576182" y1="140.37084112569926" y2="142.7455964860345" /><path d="M 175.68104954172406 140.8457921977663 a86.0,86.0 0 0,1 -30.038265399797805,32.042727171017184" fill="none" id="id41" stroke="none" /><text fill="#e1ed5e" style="font-size:6.75px; font-family:Arial;" text-anchor="middle"><textPath startOffset="22.206326154141568" xlink:href="#id41">May</textPath></text><path d="M 115.32070863581623 114.36230785411682 l 38.29669682682585 35.90101232894754 a73.49304405432262,73.49304405432262 0 0,0 -0.8731444290843162,0.9154884431094803 l -37.67304584636257 -36.55490788863952" fill="#33ff54" stroke="none" /><path d="M 114.55890576462653 115.13401014063108 l 36.51541386212392 37.95784192939998 a73.67042066909573,73.67042066909573 0 0,0 -0.9214561702441062,0.8712943233600351 l -35.856621857489 -38.580770889505935" fill="#34ff58" stroke="none" /><path d="M 114.29624159901734 115.38237550388516 l 42.88872479705202 46.14712651165547 a84.0,84.0 0 0,0 -1.0676018021325442,0.9752289336536681 l -42.088023445452606 -46.878548211895726" fill="#4dd2ff" stroke="none" /><path d="M 113.48314897796784 116.09983520530334 l 33.73020293345548 40.27625219875901 a73.53477972838688,73.53477972838688 0 0,0 -0.9774168387180515,0.8043475160653656 l -33.031915966192734 -40.85089483368156" fill="#33ff55" stroke="none" /><path d="M 112.92097659922987 116.55440617244103 l 36.52882917337762 46.80087998734158 a80.36899635640941,80.36899635640941 0 0,0 -1.0978836273554733,0.8418103492966381 l -35.71781681752865 -47.42272967846559" fill="#44ffe8" stroke="none" /><line stroke="#e1ed5e" stroke-width="0.3" x1="143.8653032363475" x2="146.44561519142675" y1="172.8068346515853" y2="177.08958963109032" /><path d="M 144.38136562736335 173.6633856474863 a86.0,86.0 0 0,1 -40.68145358897372,12.25698825130547" fill="none" id="id42" stroke="none" /><text fill="#e1ed5e" style="font-size:6.75px; font-family:Arial;" text-anchor="middle"><textPath startOffset="21.466115282336833" xlink:href="#id42">June</textPath></text><path d="M 107.93186726928326 119.44442032107085 l 16.351101672866644 40.08358723689448 a64.29032792315337,64.29032792315337 0 0,0 -1.0282745792259196,0.40917167624276524 l -15.658706017598856 -40.35910575754331" fill="#d1ff1c" stroke="none" /><path d="M 104.48393922423573 120.51570834832081 l 6.77046603301708 30.977428455058103 a52.708678370321294,52.708678370321294 0 0,0 -0.8880371649615395,0.18609682214131637 l -6.236237406626162 -31.08938125792596" fill="#ff0000" stroke="none" /><line stroke="#e1ed5e" stroke-width="0.3" x1="102.19456741930631" x2="102.32365962044197" y1="184.97166512339345" y2="189.96999836594603" /><path d="M 102.22038585953345 185.97133177190398 a86.0,86.0 0 0,1 -42.740103519485714,-10.115201625700543" fill="none" id="id43" stroke="none" /><text fill="#e1ed5e" style="font-size:6.75px; font-family:Arial;" text-anchor="middle"><textPath startOffset="22.20632615414155" xlink:href="#id43">July</textPath></text><path d="M 90.7491055286396 118.85261126421891 l -23.10578660526433 47.08781558060373 a73.45130838025835,73.45130838025835 0 0,0 -1.1302620608889997,-0.5667368611852349 l 23.91290257383609 -46.6831108785092" fill="#33ff53" stroke="none" /><line stroke="#e1ed5e" stroke-width="0.3" x1="58.666819895761336" x2="56.23545636021788" y1="174.27360380694188" y2="178.64263932499728" /><path d="M 58.180547188652646 175.14741091055294 a86.0,86.0 0 0,1 -31.652253787137756,-30.449443065178592" fill="none" id="id44" stroke="none" /><text fill="#e1ed5e" style="font-size:6.75px; font-family:Arial;" text-anchor="middle"><textPath startOffset="22.20632615414155" xlink:href="#id44">August</textPath></text><line stroke="#e1ed5e" stroke-width="0.3" x1="26.63291911575756" x2="22.317208475507996" y1="142.92168965132927" y2="145.44649492493687" /><path d="M 25.769776987707644 143.4266507060508 a86.0,86.0 0 0,1 -11.730757126820373,-40.83630448921669" fill="none" id="id45" stroke="none" /><text fill="#e1ed5e" style="font-size:6.75px; font-family:Arial;" text-anchor="middle"><textPath startOffset="21.46611528233685" xlink:href="#id45">September</textPath></text><line stroke="#e1ed5e" stroke-width="0.3" x1="15.007084014347285" x2="10.007500721073583" y1="101.09737516637583" y2="101.16192664675087" /><path d="M 14.007167355692545 101.11028546245083 a86.0,86.0 0 0,1 10.666146001902534,-42.60595125391555" fill="none" id="id46" stroke="none" /><text fill="#e1ed5e" style="font-size:6.75px; font-family:Arial;" text-anchor="middle"><textPath startOffset="22.20632615414155" xlink:href="#id46">October</textPath></text><line stroke="#e1ed5e" stroke-width="0.3" x1="26.266209847984243" x2="21.928928074336255" y1="57.711370442889674" y2="55.22380399835377" /><path d="M 25.398753493254645 57.213857153982495 a86.0,86.0 0 0,1 29.58750427330803,-30.492523968695096" fill="none" id="id47" stroke="none" /><text fill="#e1ed5e" style="font-size:6.75px; font-family:Arial;" text-anchor="middle"><textPath startOffset="21.46611528233685" xlink:href="#id47">November</textPath></text><line stroke="#e1ed5e" stroke-width="0.3" x1="56.76296977257108" x2="54.21961505331056" y1="26.818313649435495" y2="22.513508569990535" /><path d="M 56.25429882871898 25.957352633546506 a86.0,86.0 0 0,1 42.26535254187918,-11.944610805530505" fill="none" id="id48" stroke="none" /><text fill="#e1ed5e" style="font-size:6.75px; font-family:Arial;" text-anchor="middle"><textPath startOffset="22.20632615414155" xlink:href="#id48">December</textPath></text></svg>